# 3ds Max Wavefront OBJ Exporter v0.97b - (c)2007 guruware
# 创建的文件:06.11.2014 11:38:51

mtllib yuliangtong_lingjian_01.mtl

#
# object shangfandou
#

v  0.0276 0.1907 0.0099
v  0.0276 0.1907 -0.0065
v  0.0016 0.2008 -0.0065
v  0.0016 0.2008 0.0099
v  0.0061 0.2124 0.0099
v  0.0009 0.2010 -0.0065
v  0.0054 0.2126 -0.0065
v  -0.0248 0.2110 -0.0065
v  -0.0243 0.2098 0.0110
v  -0.0243 0.2098 -0.0077
v  0.0000 0.2004 -0.0077
v  0.0000 0.2004 0.0110
v  0.0061 0.2124 0.0110
v  0.0276 0.1907 0.0110
v  -0.0248 0.2110 0.0099
v  -0.0248 0.2110 0.0110
v  0.0054 0.2126 0.0110
v  0.0054 0.2126 0.0099
v  0.0054 0.2126 -0.0077
v  -0.0248 0.2110 -0.0077
v  0.0061 0.2124 -0.0065
v  0.0276 0.1907 -0.0077
v  0.0061 0.2124 -0.0077
v  0.0232 0.1815 0.0025
v  0.0240 0.1812 0.0025
v  0.0273 0.1898 0.0110
v  0.0265 0.1901 0.0110
v  -0.0251 0.2101 -0.0077
v  -0.0277 0.2012 0.0025
v  -0.0277 0.2012 0.0008
v  0.0265 0.1901 -0.0077
v  0.0232 0.1815 0.0008
v  -0.0285 0.2015 0.0025
v  -0.0251 0.2101 0.0110
v  -0.0285 0.2015 0.0008
v  0.0240 0.1812 0.0008
v  0.0273 0.1898 -0.0077
v  0.0009 0.2010 0.0099
v  0.0025 0.2004 0.0110
v  0.0021 0.1996 0.0110
v  0.0021 0.1996 -0.0077
v  0.0004 0.2012 -0.0077
v  0.0024 0.2005 -0.0077
v  -0.0001 0.1999 0.0110
v  -0.0001 0.1999 -0.0076
v  -0.0002 0.1992 -0.0076
v  -0.0002 0.1992 0.0110
v  0.0005 0.1984 -0.0076
v  0.0005 0.1984 0.0110
v  0.0015 0.1985 -0.0076
v  0.0015 0.1985 0.0110
v  0.0020 0.1991 -0.0076
v  0.0020 0.1991 0.0110
v  0.0004 0.2013 0.0110
v  0.0028 0.2078 0.0110
v  0.0055 0.2085 0.0110
v  0.0049 0.2070 0.0110
v  0.0034 0.2093 0.0110
v  0.0049 0.2070 0.0155
v  0.0090 0.2175 0.0155
v  0.0069 0.2183 0.0155
v  0.0028 0.2078 0.0155
v  0.0034 0.2093 0.0136
v  0.0055 0.2085 0.0136
v  0.0069 0.2183 0.0136
v  0.0090 0.2175 0.0136
# 66 vertices

vn 0.3613 0.9324 0.0000
vn 0.3613 0.9324 -0.0000
vn 0.0000 0.0000 -1.0000
vn -0.0000 -0.0000 1.0000
vn -0.3613 -0.9324 -0.0000
vn -0.9111 -0.4121 -0.0000
vn -0.5275 -0.2399 0.8150
vn 0.7098 0.7044 -0.0001
vn 0.7098 0.7044 0.0000
vn -0.0539 0.9985 0.0000
vn -0.0539 0.9985 -0.0001
vn -0.0539 0.9985 -0.0000
vn 0.7098 0.7044 -0.0000
vn 0.7098 0.7044 0.0001
vn -0.2447 -0.6319 0.7354
vn -0.2449 -0.6319 0.7354
vn 0.9324 -0.3613 -0.0000
vn -0.9324 0.3613 0.0000
vn -0.9324 0.3613 -0.0000
vn -0.2450 -0.6318 0.7354
vn 0.0000 -0.0000 1.0000
vn -0.2450 -0.6318 -0.7354
vn -0.2449 -0.6319 -0.7354
vn -0.2447 -0.6319 -0.7354
vn 0.9324 -0.3613 0.0000
vn -0.0000 0.0000 1.0000
vn -0.0000 0.0000 -1.0000
vn 0.3613 0.9324 0.0002
vn 0.3615 0.9324 0.0000
vn 0.3612 0.9325 -0.0001
vn 0.3613 0.9324 -0.0002
vn 0.3615 0.9324 -0.0000
vn 0.3612 0.9325 0.0000
vn -0.0031 -0.0075 1.0000
vn -0.0031 -0.0076 1.0000
vn -0.0001 -0.0001 1.0000
vn 0.4012 -0.9160 -0.0000
vn 0.3954 -0.9185 -0.0000
vn -0.0096 -0.0247 -0.9996
vn -0.9649 0.2627 0.0000
vn -0.9647 0.2633 0.0000
vn -0.9551 -0.2961 -0.0000
vn -0.9553 -0.2957 -0.0000
vn -0.3609 -0.9326 -0.0000
vn 0.5025 -0.8646 -0.0000
vn 0.5029 -0.8643 -0.0000
vn 0.8322 -0.5545 -0.0000
vn 0.4417 -0.1755 0.8798
vn 0.4426 -0.1855 -0.8773
vn -0.0100 -0.0257 -0.9996
vn -0.0053 -0.0138 -0.9999
vn 0.0007 0.0017 -1.0000
vn 0.0033 0.0086 -1.0000
vn -0.0028 -0.0076 1.0000
vn -0.0031 -0.0080 1.0000
vn -0.0017 -0.0043 1.0000
vn 0.0002 0.0005 1.0000
vn 0.0010 0.0027 1.0000
vn -0.0105 -0.0244 -0.9996
vn -0.0087 -0.0251 -0.9996
vn 0.3614 0.9324 -0.0000
vn -0.9324 0.3614 -0.0000
vn -0.0000 -0.0001 1.0000
# 63 vertex normals

vt 0.4263 0.1033 0.0000
vt 0.4562 0.1033 0.0000
vt 0.4562 0.1544 0.0000
vt 0.4263 0.1544 0.0000
vt 0.4035 0.1544 0.0000
vt 0.4605 0.2318 0.0000
vt 0.4605 0.2546 0.0000
vt 0.4100 0.2318 0.0000
vt 0.4112 0.2384 0.0000
vt 0.4112 0.2705 0.0000
vt 0.3664 0.2704 0.0000
vt 0.3664 0.2384 0.0000
vt 0.3416 0.0881 0.0000
vt 0.3416 0.1391 0.0000
vt 0.3395 0.1391 0.0000
vt 0.3395 0.0881 0.0000
vt 0.3416 0.1910 0.0000
vt 0.3395 0.1910 0.0000
vt 0.3395 0.1405 0.0000
vt 0.3416 0.1405 0.0000
vt 0.3715 0.1910 0.0000
vt 0.3716 0.1405 0.0000
vt 0.3737 0.1405 0.0000
vt 0.3737 0.1910 0.0000
vt 0.3716 0.1392 0.0000
vt 0.3716 0.0881 0.0000
vt 0.3737 0.0881 0.0000
vt 0.3737 0.1392 0.0000
vt 0.2981 0.0897 0.0000
vt 0.2981 0.0881 0.0000
vt 0.3150 0.0881 0.0000
vt 0.3150 0.0897 0.0000
vt 0.3982 0.1894 0.0000
vt 0.3982 0.1910 0.0000
vt 0.3965 0.1910 0.0000
vt 0.4270 0.2530 0.0000
vt 0.4270 0.2559 0.0000
vt 0.3137 0.2384 0.0000
vt 0.3137 0.2705 0.0000
vt 0.2979 0.2559 0.0000
vt 0.2979 0.2530 0.0000
vt 0.4242 0.1033 0.0000
vt 0.4242 0.1016 0.0000
vt 0.4100 0.2340 0.0000
vt 0.4083 0.2340 0.0000
vt 0.2981 0.1910 0.0000
vt 0.2981 0.1894 0.0000
vt 0.3150 0.1894 0.0000
vt 0.3150 0.1910 0.0000
vt 0.3167 0.1910 0.0000
vt 0.4083 0.1998 0.0000
vt 0.3914 0.2184 0.0000
vt 0.3914 0.2153 0.0000
vt 0.4151 0.1894 0.0000
vt 0.4151 0.1910 0.0000
vt 0.4151 0.0881 0.0000
vt 0.4151 0.0897 0.0000
vt 0.3982 0.0897 0.0000
vt 0.3982 0.0881 0.0000
vt 0.4584 0.1016 0.0000
vt 0.4397 0.0847 0.0000
vt 0.4428 0.0847 0.0000
vt 0.3965 0.0881 0.0000
vt 0.4584 0.1033 0.0000
vt 0.4100 0.2019 0.0000
vt 0.4100 0.1998 0.0000
vt 0.4790 0.1544 0.0000
vt 0.4605 0.1791 0.0000
vt 0.4605 0.2019 0.0000
vt 0.4562 0.1771 0.0000
vt 0.4263 0.1771 0.0000
vt 0.4832 0.2019 0.0000
vt 0.4832 0.2318 0.0000
vt 0.3167 0.1375 0.0000
vt 0.3150 0.1375 0.0000
vt 0.3167 0.0881 0.0000
vt 0.3585 0.2384 0.0000
vt 0.3585 0.2704 0.0000
vt 0.3982 0.1375 0.0000
vt 0.3982 0.1416 0.0000
vt 0.3965 0.1415 0.0000
vt 0.3965 0.1376 0.0000
vt 0.3656 0.2384 0.0000
vt 0.3656 0.2704 0.0000
vt 0.3643 0.2704 0.0000
vt 0.3643 0.2384 0.0000
vt 0.3625 0.2704 0.0000
vt 0.3625 0.2384 0.0000
vt 0.3606 0.2704 0.0000
vt 0.3606 0.2384 0.0000
vt 0.3593 0.2704 0.0000
vt 0.3593 0.2384 0.0000
vt 0.3167 0.1416 0.0000
vt 0.3295 0.1417 0.0000
vt 0.3325 0.1377 0.0000
vt 0.3990 0.1375 0.0000
vt 0.3990 0.1416 0.0000
vt 0.4004 0.1378 0.0000
vt 0.4004 0.1413 0.0000
vt 0.4013 0.1395 0.0000
vt 0.3150 0.1416 0.0000
vt 0.3656 0.2345 0.0000
vt 0.3664 0.2383 0.0000
vt 0.3648 0.2347 0.0000
vt 0.3636 0.2352 0.0000
vt 0.3632 0.2370 0.0000
vt 0.3295 0.1377 0.0000
vt 0.3325 0.1417 0.0000
vt 0.3067 0.2074 0.0000
vt 0.3273 0.2074 0.0000
vt 0.3273 0.2115 0.0000
vt 0.3067 0.2115 0.0000
vt 0.3531 0.2115 0.0000
vt 0.3483 0.2115 0.0000
vt 0.3483 0.2074 0.0000
vt 0.3531 0.2074 0.0000
vt 0.3098 0.2151 0.0000
vt 0.3098 0.2198 0.0000
vt 0.3067 0.2198 0.0000
vt 0.2984 0.2074 0.0000
vt 0.2984 0.2115 0.0000
vt 0.3067 0.1992 0.0000
vt 0.3098 0.1992 0.0000
vt 0.3098 0.2039 0.0000
vt 0.3308 0.2115 0.0000
vt 0.3308 0.2074 0.0000
vt 0.3273 0.2151 0.0000
vt 0.3273 0.2039 0.0000
# 128 texture coords

g shangfandou
usemtl Newbantouming
s off
f 1/1/1 2/2/1 3/3/1 
f 3/3/2 4/4/2 1/1/2 
f 4/4/3 5/5/3 1/1/3 
f 6/6/4 7/7/4 8/8/4 
s 2
f 9/9/5 10/10/5 11/11/6 
f 11/11/6 12/12/7 9/9/5 
s off
f 1/13/8 5/14/8 13/15/8 
f 13/15/9 14/16/9 1/13/9 
f 15/17/10 16/18/10 17/19/10 
f 17/19/11 18/20/11 15/17/11 
f 8/21/10 7/22/10 19/23/10 
f 19/23/12 20/24/12 8/21/12 
f 21/25/13 2/26/13 22/27/13 
f 22/27/14 23/28/14 21/25/14 
f 24/29/15 25/30/15 26/31/15 
f 26/31/16 27/32/16 24/29/16 
f 10/33/3 28/34/3 20/35/3 
f 9/9/17 29/36/17 30/37/17 
f 30/37/17 10/10/17 9/9/17 
f 27/38/18 31/39/18 32/40/18 
f 32/40/18 24/41/18 27/38/18 
f 14/42/17 26/43/17 1/1/17 
f 20/44/19 28/45/19 8/8/19 
f 33/46/20 29/47/20 9/48/20 
f 9/48/16 34/49/16 33/46/16 
f 34/49/21 9/48/21 16/50/21 
f 34/51/18 28/45/18 35/52/18 
f 35/52/18 33/53/18 34/51/18 
f 30/54/22 35/55/22 28/34/22 
f 28/34/23 10/33/23 30/54/23 
f 36/56/24 32/57/24 31/58/24 
f 31/58/23 37/59/23 36/56/23 
f 37/60/17 26/43/17 25/61/17 
f 25/61/17 36/62/17 37/60/17 
f 22/63/3 37/59/3 31/58/3 
f 2/2/17 1/1/17 26/43/17 
f 26/43/17 37/60/17 2/2/17 
f 2/2/25 37/60/25 22/64/25 
f 15/65/18 8/8/18 28/45/18 
f 28/45/18 34/51/18 15/65/18 
f 15/65/18 34/51/18 16/66/18 
f 2/2/26 21/67/26 3/3/26 
f 15/65/27 18/68/27 38/69/27 
f 15/65/1 38/69/1 6/6/1 
f 6/6/1 8/8/1 15/65/1 
f 21/70/25 5/71/25 4/4/25 
f 4/4/25 3/3/25 21/70/25 
f 18/72/18 7/73/18 6/6/18 
f 6/6/19 38/69/19 18/72/19 
f 21/25/28 23/28/28 19/23/28 
f 19/23/29 7/22/29 21/25/29 
f 13/15/30 5/14/30 18/20/30 
f 18/20/31 17/19/31 13/15/31 
f 5/14/32 21/25/32 7/22/32 
f 7/22/33 18/20/33 5/14/33 
s 2
f 39/74/34 40/75/35 27/32/36 
f 27/32/36 14/76/21 39/74/34 
s 4
f 27/38/5 40/77/37 41/78/38 
f 41/78/38 31/39/5 27/38/5 
s off
f 41/79/39 11/80/39 42/81/39 
f 42/81/39 43/82/39 41/79/39 
s 2
f 44/83/40 45/84/41 46/85/42 
f 46/85/42 47/86/43 44/83/40 
f 47/86/43 46/85/42 48/87/44 
f 48/87/44 49/88/44 47/86/43 
f 49/88/44 48/87/44 50/89/45 
f 50/89/45 51/90/46 49/88/44 
f 51/90/46 50/89/45 52/91/47 
f 52/91/47 53/92/47 51/90/46 
f 12/12/7 11/11/6 45/84/41 
f 45/84/41 44/83/40 12/12/7 
s 4
f 53/92/48 52/91/49 41/78/38 
f 41/78/38 40/77/37 53/92/48 
s off
f 16/50/21 54/93/21 55/94/21 
f 56/95/21 14/76/21 13/15/21 
f 42/81/3 19/23/3 23/28/3 
f 23/28/3 43/82/3 42/81/3 
s 8
f 11/80/50 41/79/50 52/96/49 
f 52/96/49 45/97/51 11/80/50 
s 12
f 45/97/51 52/96/49 50/98/52 
f 50/98/52 46/99/52 45/97/51 
s 4
f 48/100/53 46/99/52 50/98/52 
s 18
f 40/75/35 39/74/34 54/93/54 
f 54/93/54 12/101/7 40/75/35 
s 8
f 40/102/55 12/103/55 44/83/56 
f 44/83/56 53/104/48 40/102/55 
s 12
f 53/104/48 44/83/56 47/86/57 
f 47/86/57 51/105/57 53/104/48 
s 4
f 49/106/58 51/105/57 47/86/57 
s off
f 57/107/21 55/94/21 54/93/21 
f 54/93/21 39/74/21 57/107/21 
f 22/63/3 43/82/3 23/28/3 
f 43/82/3 22/63/3 31/58/3 
f 31/58/59 41/79/59 43/82/59 
f 10/33/3 20/35/3 42/81/3 
f 42/81/60 11/80/60 10/33/60 
f 19/23/3 42/81/3 20/35/3 
f 13/15/21 17/19/21 58/108/21 
f 58/108/21 56/95/21 13/15/21 
usemtl Newdf_1
f 59/109/21 60/110/21 61/111/21 
f 61/111/21 62/112/21 59/109/21 
usemtl Newbantouming
f 16/50/21 58/108/21 17/19/21 
f 16/50/21 55/94/21 58/108/21 
f 57/107/21 39/74/21 14/76/21 
f 57/107/21 14/76/21 56/95/21 
usemtl Newdf_1
f 58/113/2 63/114/2 64/115/2 
f 64/115/61 56/116/61 58/113/61 
f 63/117/18 58/118/18 55/119/18 
f 55/119/62 62/112/62 63/117/62 
f 57/120/5 59/109/5 62/112/5 
f 62/112/5 55/121/5 57/120/5 
f 57/122/25 56/123/25 64/124/25 
f 64/124/17 59/109/17 57/122/17 
f 65/125/2 61/111/2 60/110/2 
f 60/110/1 66/126/1 65/125/1 
f 63/114/3 65/125/3 66/126/3 
f 66/126/3 64/115/3 63/114/3 
f 61/111/18 65/127/18 63/117/18 
f 63/117/19 62/112/19 61/111/19 
f 64/124/25 66/128/25 60/110/25 
f 60/110/17 59/109/17 64/124/17 
usemtl Newbantouming
f 14/76/21 27/32/21 26/31/21 
s 16
f 9/48/63 12/101/7 54/93/54 
f 54/93/54 16/50/21 9/48/63 
# 124 faces

